<svg width="94" height="42" viewBox="0 0 94 42" fill="none" xmlns="http://www.w3.org/2000/svg">
<g id="logo">
<path id="Vector" d="M20.8286 2.07041L20.5839 2.12346L20.1714 2.2056L19.961 2.24153C19.8583 2.26207 19.7505 2.27576 19.6478 2.28945L19.5502 2.30143C19.4236 2.31683 19.2782 2.33223 19.1327 2.33737H18.9136C18.8555 2.33737 18.799 2.33052 18.7425 2.31683L18.6758 2.49994C18.8195 2.55641 18.9667 2.59406 19.1207 2.61117C19.273 2.63342 19.427 2.64369 19.5622 2.65224H19.6067C19.7043 2.65224 19.8018 2.65224 19.8993 2.65224H20.2176L20.4316 2.64026L20.6506 2.63L20.9039 2.60775C21.0305 2.59748 21.1657 2.5855 21.294 2.56839C21.4241 2.55299 21.5815 2.53587 21.727 2.51705L22.1514 2.45544C22.2986 2.43491 22.4423 2.40753 22.5809 2.38357L23.0053 2.30827C23.1884 2.27405 23.3698 2.23811 23.5529 2.20046L23.8524 2.13886C24.0697 2.09094 24.2854 2.04131 24.5027 1.99169L24.7902 1.92495L24.8809 1.90955C24.9151 1.90099 24.9476 1.89757 24.9819 1.89585H25.1564L25.1992 1.90441C25.2231 1.90612 25.2488 1.91126 25.2728 1.91981H25.2916C25.3104 1.92495 25.3275 1.93179 25.3464 1.94206L25.384 1.95917L25.4182 1.98142C25.4353 1.99169 25.4525 2.00195 25.4679 2.01564V2.02249H25.4747C25.4935 2.03789 25.5089 2.05329 25.5243 2.07041C25.5346 2.08238 25.5449 2.09265 25.5551 2.10292L25.615 2.18164L25.6321 2.21415C25.7434 2.40582 25.8221 2.61117 25.8632 2.83022C25.9607 3.34018 25.9915 3.85527 25.9573 4.37208C25.9316 4.91456 25.87 5.4519 25.7742 5.98582C25.6818 6.52316 25.562 7.06222 25.4199 7.58929C25.3429 7.88192 25.2557 8.16428 25.1906 8.3799C25.1068 8.64344 25.0161 8.90527 24.922 9.15683C24.7371 9.6685 24.5232 10.1682 24.2802 10.6559C24.0475 11.1316 23.7703 11.5834 23.452 12.0061C23.2997 12.2046 23.1302 12.3877 22.9454 12.5554C22.7777 12.7094 22.5895 12.8309 22.3807 12.9216L22.3465 12.937H22.3311L22.2335 12.9679C22.2233 12.9713 22.213 12.973 22.201 12.9747C22.1908 12.9764 22.1805 12.9781 22.1702 12.9815C22.1582 12.9815 22.1463 12.9815 22.1343 12.9884C22.124 12.9901 22.112 12.9901 22.1018 12.9884L22.0402 12.9952C22.0111 12.9952 21.982 13.0021 21.9666 13.0021C21.9512 13.0021 21.9358 12.9987 21.9221 12.9952C21.9135 12.9935 21.9084 12.9901 21.9033 12.9833C21.8861 12.9644 21.8707 12.9439 21.8588 12.9199C21.8143 12.8258 21.7818 12.7283 21.7612 12.6273C21.7116 12.3775 21.6791 12.1242 21.662 11.8692V11.8401C21.6534 11.7357 21.6449 11.6279 21.6363 11.5218C21.6226 11.3438 21.6072 11.1659 21.5901 10.9862C21.5456 10.3907 21.4207 9.81054 21.2187 9.24924C21.1075 8.96174 20.9569 8.69649 20.7653 8.4552C20.5736 8.21733 20.3426 8.02396 20.0722 7.8785L19.9644 8.03765C20.1732 8.21049 20.3443 8.41584 20.4761 8.65371C20.6061 8.88644 20.7002 9.13287 20.7584 9.39298C20.8183 9.65481 20.856 9.92177 20.8714 10.1922C20.8868 10.4437 20.8919 10.7141 20.8868 11.017C20.8868 11.1864 20.8868 11.3558 20.8748 11.5218L20.8679 11.8624C20.8679 12.0078 20.8679 12.1567 20.8679 12.3056C20.8714 12.4613 20.8816 12.617 20.9004 12.7728C20.9193 12.9542 20.9621 13.1287 21.0271 13.2981C21.0699 13.4042 21.128 13.5018 21.2016 13.5925C21.2872 13.6969 21.3899 13.7824 21.5097 13.844C21.6277 13.9056 21.751 13.9433 21.8827 13.957C21.9341 13.9621 21.9854 13.9655 22.0385 13.9655H22.1771C22.2096 13.9638 22.2421 13.9621 22.2729 13.9553H22.3568C22.391 13.9518 22.4252 13.9467 22.4594 13.9399L22.61 13.9039L22.6614 13.8902L22.7213 13.8697C23.0498 13.7568 23.351 13.5908 23.6231 13.3751C23.8729 13.1749 24.1005 12.9525 24.3076 12.7077C24.6995 12.2423 25.0366 11.7392 25.3207 11.2001C25.6065 10.6816 25.858 10.1459 26.0754 9.59491C26.2807 9.05073 26.4655 8.486 26.6196 7.91786C26.9361 6.7713 27.1107 5.6042 27.1432 4.41657C27.162 3.79367 27.097 3.17932 26.9481 2.57352C26.8626 2.23298 26.7205 1.91981 26.522 1.62889L26.4775 1.56729L26.4108 1.48857C26.3868 1.45948 26.3646 1.43381 26.3355 1.40129L26.3047 1.37391C26.2448 1.31402 26.1798 1.25926 26.1096 1.20792C26.0343 1.15316 25.9556 1.10524 25.8717 1.06588L25.8341 1.04535L25.7896 1.02823C25.6202 0.958072 25.4439 0.918713 25.2625 0.910156H25.0503C25.0127 0.911867 24.9767 0.91529 24.9391 0.922135L24.898 0.927269C24.821 0.937537 24.7457 0.952938 24.6721 0.973474L24.5455 1.0077L24.4411 1.0385L23.6351 1.29177L22.8291 1.54162L22.2198 1.71617L21.6072 1.88045L21.1965 1.98313C21.075 2.01564 20.9484 2.04645 20.8286 2.07041Z" fill="#00A9EB"/>
<path id="Vector_2" d="M13.3771 5.89452C13.5225 6.32919 13.6919 6.75701 13.8836 7.17456C14.0753 7.59383 14.2926 7.9994 14.5339 8.39299C14.5904 8.48198 14.6537 8.57952 14.7273 8.68905C14.8009 8.79686 14.8676 8.88584 14.9343 8.97312C15.0695 9.14938 15.2064 9.32393 15.3416 9.49848L15.7489 10.0102C16.1682 10.5355 16.5635 11.0301 16.9126 11.5606C17.147 11.9097 17.3438 12.2793 17.503 12.6678C17.6604 13.0665 17.7665 13.4772 17.8213 13.9033H18.0129C18.0249 13.7921 18.0335 13.6809 18.042 13.5662C18.042 13.4926 18.042 13.4173 18.042 13.342V13.2291C18.042 13.1795 18.0403 13.1315 18.0352 13.0819L18.0146 12.8543C18.0146 12.8338 18.0146 12.8132 18.0078 12.7893L17.9633 12.536C17.8726 12.0808 17.7254 11.6427 17.5269 11.2235C17.3318 10.8127 17.1162 10.4157 16.8766 10.029C16.75 9.83047 16.6234 9.63196 16.5207 9.46597C16.4009 9.27944 16.2811 9.09462 16.1596 8.91151C16.033 8.73012 15.9217 8.54701 15.8002 8.35877C15.7421 8.26807 15.6907 8.18935 15.6411 8.10721C15.5915 8.02507 15.5333 7.92068 15.4922 7.84196C15.2971 7.47404 15.1174 7.09242 14.9617 6.70396C14.7854 6.271 14.6451 5.88597 14.5339 5.51975C14.409 5.12787 14.3097 4.72743 14.2344 4.32185C14.1574 3.93682 14.1232 3.54835 14.1352 3.15476C14.1403 2.9785 14.1643 2.80395 14.2053 2.63111C14.2413 2.48394 14.2994 2.34361 14.3799 2.21355C14.4552 2.09719 14.551 2.00307 14.6691 1.93119C14.8009 1.84905 14.9429 1.79429 15.0952 1.76349C15.2715 1.72755 15.4494 1.71215 15.6291 1.71215H15.9252C15.9611 1.71215 15.9987 1.71215 16.0364 1.72242L16.2229 1.74466C17.0786 1.86103 17.9393 1.92264 18.8018 1.92777H18.937C19.0089 1.92777 19.0842 1.92777 19.1578 1.92092H19.3563C19.4316 1.92092 19.5086 1.92092 19.5856 1.90895L19.921 1.87814C19.9997 1.8713 20.0767 1.85761 20.1537 1.84734L20.2598 1.83194C20.3197 1.82338 20.3865 1.8114 20.4327 1.79942L20.597 1.7652C20.6363 1.75835 20.6757 1.74809 20.715 1.73611L20.7715 1.7207L20.8263 1.70701C20.8656 1.69504 20.9033 1.68477 20.9392 1.67108L21.1052 1.60947L21.2678 1.53417C21.3824 1.47941 21.4817 1.40241 21.5656 1.30486L21.4218 1.17823C21.4064 1.19192 21.3876 1.2039 21.367 1.21245C21.3551 1.22101 21.3397 1.22786 21.326 1.23299L21.2798 1.25181L21.172 1.28433L21.0214 1.31684L20.8588 1.33567C20.8263 1.3408 20.7938 1.34251 20.763 1.34422H20.65C20.6226 1.34422 20.5935 1.34422 20.5645 1.34422H20.2273C19.7995 1.33053 19.3734 1.29117 18.949 1.22957C18.2029 1.12347 17.3917 0.976297 16.3958 0.75383L16.1938 0.712759L16.0467 0.68709L15.9851 0.676822L15.8584 0.659709L15.6753 0.640885C15.5726 0.632329 15.4717 0.628906 15.3724 0.628906C15.2133 0.628906 15.0558 0.639174 14.8984 0.661421C14.6109 0.699069 14.3405 0.788056 14.0872 0.928381C13.8169 1.07726 13.591 1.27748 13.4113 1.52904C13.2436 1.7652 13.1204 2.02189 13.0434 2.30254C12.9732 2.55581 12.9321 2.81421 12.9167 3.07775C12.8945 3.56547 12.9287 4.04976 13.0194 4.52892C13.1084 4.99268 13.2265 5.44788 13.3771 5.89452Z" fill="#00A9EB"/>
<path id="Vector_3" d="M3.95981 12.2865L3.92046 12.3789C3.86912 12.4952 3.80751 12.6322 3.73906 12.7588C3.72879 12.781 3.7151 12.8016 3.70312 12.8238L3.67061 12.8769C3.66205 12.894 3.65178 12.9111 3.63809 12.9299L3.62954 12.9436C3.59873 12.9949 3.56451 13.0411 3.52344 13.0839L3.65007 13.2328C3.77157 13.1387 3.87767 13.0292 3.97008 12.906C4.06591 12.7793 4.15319 12.6544 4.2302 12.5466L4.25073 12.5106C4.3209 12.4011 4.39277 12.2882 4.45609 12.1735L4.5639 11.9819L4.76412 11.5951L4.87535 11.3624C4.93182 11.246 4.9883 11.1262 5.03963 11.0081C5.08926 10.8884 5.156 10.7429 5.21247 10.6094L5.37333 10.2124C5.42981 10.0772 5.48114 9.9403 5.53077 9.80682L5.67965 9.40296C5.74297 9.22841 5.80629 9.05215 5.86276 8.87589C5.89528 8.78005 5.92779 8.68593 5.9603 8.58839C6.03047 8.3779 6.09721 8.1657 6.16224 7.95693L6.25122 7.67285L6.28202 7.58729C6.29229 7.55477 6.30598 7.52397 6.3231 7.49317L6.34534 7.44354C6.35048 7.43499 6.35732 7.42472 6.36417 7.41616L6.37443 7.39734C6.38299 7.38707 6.38984 7.3768 6.39497 7.36653L6.40866 7.34258C6.41893 7.33231 6.4292 7.32033 6.43775 7.30835C6.45315 7.28953 6.47027 7.2707 6.48909 7.2553H6.49594L6.50278 7.24846C6.51647 7.23477 6.53187 7.22108 6.54899 7.21252L6.58321 7.18685L6.61915 7.16974C6.63626 7.15947 6.65508 7.15091 6.67562 7.14578H6.69102C6.71327 7.13722 6.73552 7.13209 6.75947 7.12867L6.80225 7.1184L6.8998 7.10642H6.96312C7.17703 7.11155 7.38409 7.1492 7.58773 7.22108C8.07716 7.39391 8.5375 7.62836 8.96703 7.91928C9.42223 8.21704 9.85518 8.54218 10.2676 8.89471C10.6869 9.24381 11.0924 9.62029 11.4741 10.0105C11.688 10.2244 11.8899 10.4417 12.0405 10.6077C12.227 10.8131 12.4084 11.0235 12.5778 11.2306C12.9269 11.6482 13.2504 12.0845 13.5481 12.5415C13.8408 12.9795 14.0906 13.4433 14.296 13.9293C14.3901 14.1603 14.4637 14.3999 14.5133 14.6446C14.5629 14.8654 14.5732 15.0896 14.5441 15.3154V15.3685L14.5219 15.466C14.5184 15.4763 14.515 15.4883 14.5116 15.4985C14.5064 15.5071 14.5047 15.5174 14.5013 15.5276L14.4893 15.5619C14.4859 15.5738 14.4825 15.5841 14.4774 15.5944L14.4517 15.6491C14.4414 15.6731 14.4312 15.6953 14.4192 15.7159C14.4123 15.7296 14.4038 15.7416 14.3918 15.7518C14.3867 15.757 14.3798 15.7604 14.373 15.7621C14.3541 15.7638 14.3353 15.7638 14.3165 15.7621H14.2942C14.1916 15.7552 14.0906 15.733 13.9914 15.6988C13.7501 15.6149 13.5139 15.514 13.2846 15.3993L13.2589 15.3873L12.9697 15.2504C12.8106 15.1717 12.648 15.0947 12.4854 15.0194C11.9464 14.7559 11.3834 14.5693 10.7964 14.4581C10.6287 14.4324 10.4593 14.4204 10.2898 14.4204C10.1529 14.4187 10.016 14.429 9.88085 14.4495C9.57624 14.4957 9.29388 14.5967 9.03034 14.7541L9.1142 14.927C9.35378 14.8431 9.59849 14.8021 9.85176 14.8021H9.90481C10.1718 14.8072 10.4319 14.8483 10.6869 14.927C10.9453 15.0091 11.1934 15.1118 11.4347 15.235C11.6606 15.348 11.8967 15.4797 12.1551 15.6389C12.3006 15.7261 12.4478 15.8168 12.5932 15.9075L12.8807 16.0838C13.0074 16.1608 13.134 16.2361 13.2606 16.308C13.3958 16.385 13.5362 16.4534 13.6799 16.5151C13.8476 16.5903 14.0204 16.6417 14.2001 16.6691C14.2566 16.6776 14.3131 16.681 14.3713 16.681C14.4277 16.681 14.4859 16.6759 14.5424 16.6691C14.6793 16.6485 14.8059 16.6023 14.9223 16.5287C15.0335 16.4586 15.1294 16.3713 15.2081 16.2669C15.2543 16.2036 15.2971 16.1386 15.3347 16.0701L15.3638 16.0205C15.3809 15.9897 15.3963 15.9589 15.4083 15.9281C15.4083 15.9144 15.4186 15.9024 15.4271 15.8853L15.4408 15.8511C15.4545 15.8186 15.4682 15.7878 15.4802 15.7535L15.5247 15.6064C15.5247 15.591 15.5349 15.5738 15.5384 15.5567L15.552 15.4934C15.6205 15.1529 15.6291 14.8106 15.5794 14.4666C15.5281 14.1535 15.4459 13.8472 15.3347 13.5494C15.1328 12.9744 14.871 12.4268 14.5492 11.9066C14.2378 11.4017 13.8972 10.9157 13.5276 10.4537C13.1614 9.99849 12.7678 9.55698 12.3537 9.136C11.5237 8.28378 10.603 7.5428 9.59336 6.91304C9.06457 6.58277 8.49985 6.33121 7.90261 6.15495C7.63223 6.07794 7.35842 6.03687 7.07777 6.03516C7.00761 6.03516 6.93916 6.03516 6.87071 6.04371L6.79541 6.05056L6.69102 6.06767C6.6568 6.07452 6.62086 6.07965 6.57808 6.08992L6.54043 6.10018C6.45658 6.12243 6.37615 6.15152 6.29743 6.18575C6.21186 6.22169 6.13143 6.26276 6.05442 6.31238L6.01849 6.33634L5.97913 6.36715C5.90725 6.42019 5.84223 6.47838 5.78404 6.54341C5.71901 6.61015 5.66254 6.68202 5.6112 6.76074L5.5958 6.78299C5.57527 6.81208 5.55815 6.84288 5.54104 6.8754L5.50681 6.94214C5.48799 6.97636 5.47259 7.00888 5.4589 7.04481L5.4435 7.08417C5.41269 7.15433 5.38874 7.22621 5.3682 7.29979L5.33397 7.42643L5.31002 7.53082L5.12178 8.35566L4.92498 9.17536L4.76754 9.788L4.60155 10.3989L4.47491 10.8045C4.44068 10.9311 4.40133 11.0458 4.36368 11.1639L4.2918 11.4017L4.1549 11.797L4.0796 11.9956C4.03853 12.0965 3.99917 12.1941 3.95981 12.2865Z" fill="#00A9EB"/>
<path id="Vector_4" d="M1.25346 18.4887C1.66417 18.7557 2.09884 18.9713 2.56088 19.1356C3.00068 19.2913 3.44904 19.418 3.90595 19.5138C4.35602 19.6079 4.81122 19.6781 5.26813 19.7243C5.7028 19.7654 6.06388 19.7859 6.401 19.7859C6.48485 19.7859 6.56699 19.7859 6.65427 19.7859C6.76037 19.7859 6.87674 19.7773 7.0085 19.7688C7.14198 19.7602 7.2498 19.7482 7.35932 19.7328C7.58178 19.7072 7.80083 19.6781 8.01987 19.649C8.23892 19.6199 8.45454 19.5874 8.66845 19.5583C9.33243 19.4608 9.96047 19.3718 10.5971 19.3393C10.7237 19.3393 10.8572 19.329 10.977 19.329C11.2679 19.3273 11.5588 19.3478 11.848 19.3923C12.2724 19.4573 12.6814 19.5737 13.0767 19.7414L13.1708 19.5754C13.0818 19.5087 12.9894 19.4488 12.8953 19.3803C12.8337 19.3393 12.7687 19.3016 12.7037 19.2657L12.6044 19.2075C12.5599 19.1801 12.5171 19.1596 12.4778 19.139L12.269 19.0398L12.2108 19.0158L11.9712 18.9234C11.5314 18.7728 11.0796 18.677 10.6159 18.6376C10.2959 18.6051 9.95362 18.5914 9.56516 18.5914C9.46248 18.5914 9.3581 18.5914 9.25542 18.5914C9.0244 18.5914 8.79851 18.6034 8.58802 18.6137C8.37753 18.6239 8.14651 18.6308 7.92746 18.6428C7.70842 18.653 7.49109 18.6633 7.27375 18.6719H7.25664C7.15225 18.6719 7.06155 18.6787 6.96743 18.6804C6.84764 18.6804 6.75181 18.6804 6.66283 18.6804C6.24356 18.6616 5.82772 18.6222 5.41359 18.5623C4.95154 18.4973 4.54768 18.4203 4.17462 18.333C3.77247 18.2423 3.37545 18.126 2.98699 17.9856C2.61564 17.8556 2.26312 17.6879 1.92942 17.4791C1.77883 17.385 1.64021 17.2772 1.51187 17.1539C1.40234 17.0478 1.31165 16.9263 1.23977 16.7912C1.17645 16.6679 1.14394 16.5379 1.14052 16.3993C1.13881 16.2453 1.16105 16.0947 1.21239 15.9475C1.27057 15.7764 1.34587 15.6155 1.43999 15.4615L1.51529 15.3349L1.56834 15.2596L1.59914 15.2133C1.61968 15.1808 1.64363 15.15 1.66588 15.1209L1.77711 14.9721C2.33499 14.267 2.84153 13.5294 3.29673 12.7559C3.34123 12.6841 3.3823 12.6054 3.42337 12.5335L3.46444 12.4565L3.51749 12.3572C3.55343 12.2922 3.58936 12.2306 3.62188 12.1553L3.76562 11.8507C3.79814 11.7788 3.82723 11.7069 3.85632 11.6351C3.87001 11.6008 3.88199 11.5683 3.89568 11.5358C3.92135 11.4793 3.94018 11.4229 3.95729 11.3698L4.01034 11.2124C4.02403 11.1747 4.0343 11.1337 4.04628 11.0926C4.04628 11.0772 4.05483 11.0584 4.05997 11.0395C4.0651 11.019 4.06852 11.0019 4.07366 10.9848C4.08563 10.9471 4.09419 10.9078 4.10104 10.8701L4.13184 10.6956L4.14895 10.5176C4.16093 10.3892 4.14382 10.266 4.10104 10.1445L3.91622 10.2027C3.91964 10.225 3.91964 10.2455 3.91622 10.266C3.91793 10.2831 3.91793 10.2985 3.91622 10.3139L3.90937 10.3636L3.8837 10.4731L3.83408 10.6186L3.76905 10.7674C3.75878 10.7965 3.74338 10.8256 3.72969 10.8547C3.71942 10.8701 3.71086 10.8872 3.70402 10.9043C3.69546 10.9215 3.68691 10.9369 3.67835 10.9557C3.66466 10.9865 3.64755 11.0156 3.63043 11.043L3.55 11.185C3.52605 11.2278 3.50038 11.274 3.46786 11.3202C3.23855 11.6813 2.99041 12.0287 2.72174 12.3641C2.25456 12.9545 1.70866 13.5739 1.01902 14.3218L0.882114 14.4758C0.847889 14.5117 0.815374 14.5511 0.784571 14.5887L0.746923 14.6349L0.669915 14.7325L0.560393 14.8796C0.408088 15.0936 0.281454 15.3194 0.180488 15.5607C0.0675437 15.8277 0.00764861 16.1049 0.000803476 16.3941C-0.00775327 16.7022 0.0521419 16.9965 0.175354 17.2789C0.295144 17.5424 0.457716 17.7786 0.659647 17.9856C0.839332 18.1756 1.03784 18.3433 1.25346 18.4887Z" fill="#00A9EB"/>
<path id="Vector_5" d="M3.35569 29.3527L3.64661 29.6607C3.73388 29.7514 3.81773 29.8455 3.89988 29.9362L4.06929 30.1262L4.3431 30.4445L4.47658 30.6104C4.54332 30.6892 4.60321 30.7747 4.66824 30.8569L4.72985 30.9407C4.80343 31.0434 4.889 31.1615 4.96429 31.2864C4.97798 31.3087 4.99167 31.3292 5.00194 31.3531L5.03275 31.4062C5.04301 31.4233 5.05157 31.4404 5.06184 31.4592L5.07039 31.4764C5.09777 31.5277 5.12002 31.5807 5.13713 31.6372L5.32709 31.6047C5.30826 31.4524 5.2689 31.3052 5.2073 31.1632C5.15253 31.0194 5.08066 30.8791 5.02761 30.7576L5.00879 30.72C4.94889 30.607 4.88215 30.4872 4.82055 30.3743L4.71102 30.1843L4.59466 30.0029L4.47829 29.8164L4.33112 29.6059C4.26096 29.4998 4.18566 29.3903 4.10865 29.2876C4.03164 29.1832 3.93924 29.0532 3.85538 28.9351L3.59013 28.5946C3.50115 28.4765 3.40874 28.3635 3.31975 28.2557L3.04595 27.922C2.92616 27.7783 2.80466 27.6362 2.68144 27.4959L2.48465 27.2683C2.33748 27.1006 2.18688 26.9363 2.03629 26.772L1.83949 26.5547L1.7796 26.4845C1.75735 26.4589 1.73853 26.4315 1.7197 26.4024L1.6889 26.3562C1.68205 26.3476 1.67692 26.3374 1.6735 26.3271C1.67008 26.3203 1.66665 26.3151 1.66323 26.3083L1.64612 26.2741C1.64098 26.2672 1.63756 26.2587 1.63414 26.2501L1.61874 26.2107C1.60847 26.1868 1.60162 26.1628 1.5982 26.1372V26.12C1.59307 26.1012 1.58964 26.0824 1.58793 26.0619C1.58793 26.0482 1.58793 26.0345 1.58793 26.0208C1.58793 26.0071 1.58793 25.9917 1.58793 25.9797C1.58964 25.9592 1.59136 25.9386 1.59478 25.9198V25.901C1.59991 25.8788 1.60505 25.8565 1.6136 25.8343C1.6136 25.8206 1.62216 25.8069 1.62729 25.7932C1.63072 25.7795 1.66665 25.7025 1.66665 25.7025L1.68548 25.6734C1.79842 25.48 1.94046 25.3123 2.11159 25.1669C2.51031 24.8332 2.94498 24.5559 3.41558 24.3335C3.90159 24.0905 4.40128 23.88 4.91467 23.7003C5.42976 23.5189 5.95855 23.3597 6.48905 23.2263C6.71836 23.1681 6.96649 23.1099 7.29164 23.0414C7.56373 22.985 7.83583 22.9353 8.10107 22.8943C8.63842 22.8053 9.18089 22.7471 9.72508 22.7214C9.88765 22.7129 10.0485 22.7095 10.2042 22.7095C10.5756 22.7077 10.9452 22.7334 11.3114 22.7848C11.5596 22.819 11.8009 22.8772 12.0387 22.9593C12.2544 23.0278 12.4529 23.1321 12.6343 23.2708L12.6634 23.293L12.677 23.305L12.7506 23.3751L12.7917 23.4231L12.8157 23.4504C12.8242 23.4573 12.8311 23.4676 12.8379 23.4761L12.8721 23.5257C12.8892 23.5514 12.9064 23.5754 12.9132 23.5891C12.9218 23.6027 12.9269 23.6164 12.932 23.6318C12.9337 23.6387 12.9337 23.6438 12.932 23.6507C12.9235 23.6763 12.9115 23.7003 12.8961 23.7225C12.8362 23.8081 12.7677 23.8834 12.6873 23.9501C12.4922 24.1161 12.2869 24.2684 12.0712 24.4088L12.049 24.4242L11.7838 24.6021C11.6366 24.7014 11.486 24.8006 11.3388 24.9033C10.8391 25.2336 10.3925 25.6255 9.99889 26.0756C9.80209 26.3134 9.64465 26.5735 9.52828 26.8576C9.41363 27.1417 9.35887 27.4377 9.36229 27.7441L9.55395 27.7595C9.60358 27.4925 9.70112 27.2426 9.84316 27.0116C9.98177 26.784 10.1512 26.5821 10.3497 26.4041C10.5499 26.2244 10.7655 26.0619 10.9931 25.9164C11.2053 25.7795 11.4381 25.6443 11.7067 25.4988C11.8556 25.4201 12.0045 25.3397 12.1568 25.2627L12.458 25.1018C12.5846 25.0351 12.7113 24.9615 12.8379 24.8845C12.9731 24.8075 13.1032 24.7236 13.2298 24.6329C13.3787 24.5268 13.5104 24.4036 13.6251 24.2616C13.697 24.1726 13.7552 24.0733 13.7979 23.9655C13.8476 23.8406 13.8715 23.7106 13.8681 23.5737C13.863 23.4436 13.8356 23.317 13.7842 23.1955C13.7534 23.1253 13.7175 23.0568 13.6781 22.9901L13.6473 22.9405C13.6319 22.9097 13.6131 22.8806 13.5909 22.8532L13.5652 22.819L13.5412 22.7882C13.5224 22.7591 13.5002 22.7317 13.4762 22.706L13.3718 22.5914C13.3598 22.5794 13.3479 22.5657 13.3359 22.5537L13.288 22.5109C13.0279 22.2799 12.7369 22.0985 12.4152 21.9685C12.1175 21.8487 11.8128 21.758 11.498 21.6964C10.9435 21.5903 10.3822 21.5407 9.81749 21.5475H9.6823C9.08848 21.5595 8.49809 21.6074 7.90941 21.693C7.32758 21.7785 6.74916 21.8949 6.17759 22.0386C5.02248 22.321 3.91699 22.7385 2.86284 23.2913C2.30667 23.5771 1.80013 23.9347 1.34322 24.3608C1.08653 24.6021 0.881174 24.8794 0.725447 25.1942L0.692933 25.261L0.655285 25.3585C0.643306 25.3927 0.631327 25.427 0.619348 25.468L0.60908 25.5074C0.585122 25.5895 0.568009 25.6734 0.559453 25.7607C0.547474 25.8514 0.544051 25.9421 0.549185 26.0345V26.079L0.55603 26.1269C0.566298 26.2125 0.583411 26.2963 0.60908 26.3802C0.634749 26.4691 0.668975 26.5547 0.710046 26.6386L0.722025 26.6625C0.737426 26.695 0.754539 26.7258 0.775074 26.7566L0.814434 26.82C0.833258 26.8542 0.853793 26.885 0.877751 26.9141L0.905132 26.9466C0.951336 27.0082 1.00096 27.0664 1.05401 27.1194L1.14471 27.2136L1.22343 27.2888L1.8412 27.8656L2.45042 28.4508L2.90049 28.8957L3.35569 29.3527Z" fill="#00A9EB"/>
<path id="Vector_6" d="M14.7888 27.6601C15.0591 27.3281 15.3672 27.0321 15.7129 26.7754L15.6153 26.6094L15.309 26.748C15.2405 26.7822 15.1755 26.8182 15.1105 26.8558L15.0129 26.9106C14.9684 26.9345 14.9274 26.9602 14.8863 26.9893L14.6946 27.1159L14.6433 27.1519L14.4448 27.3281C14.0923 27.6276 13.7808 27.9647 13.5104 28.3395C13.2469 28.7091 13.0056 29.0907 12.7866 29.4878C12.6719 29.6914 12.559 29.8985 12.4666 30.073C12.3724 30.2493 12.2578 30.4632 12.1585 30.6583C12.0576 30.8516 11.9549 31.0365 11.8488 31.2401C11.7992 31.3359 11.7564 31.4198 11.705 31.5054C11.6537 31.5892 11.5955 31.6885 11.5459 31.7569C11.3183 32.1077 11.0736 32.4483 10.8135 32.7683C10.5225 33.1328 10.2522 33.4425 9.98861 33.718C9.70625 34.0192 9.40507 34.3016 9.08677 34.5651C8.78729 34.8201 8.46386 35.0392 8.11476 35.2205C7.95732 35.3027 7.79475 35.3677 7.62362 35.4156C7.49699 35.4499 7.36864 35.467 7.23687 35.467H7.17184C7.03323 35.4601 6.90488 35.4225 6.78338 35.3557C6.64819 35.2787 6.53011 35.1829 6.42915 35.0648C6.31278 34.9279 6.2101 34.7807 6.12625 34.6233L6.05609 34.4967L6.01844 34.4162L5.99277 34.3649C5.97566 34.3307 5.96026 34.2965 5.94657 34.2605L5.87298 34.0877C5.54612 33.2543 5.16451 32.4466 4.72642 31.6645C4.68364 31.5875 4.63915 31.5139 4.59979 31.442L4.55529 31.3702L4.49711 31.2743C4.45946 31.211 4.41839 31.1477 4.37047 31.0827L4.18052 30.8037C4.13432 30.7404 4.0864 30.6788 4.0402 30.6172L3.97346 30.5333C3.93752 30.4837 3.89645 30.4358 3.86222 30.3964L3.7527 30.2698C3.72532 30.2373 3.69623 30.2099 3.66714 30.1791C3.65516 30.1671 3.64147 30.1552 3.62778 30.1398L3.58842 30.0987C3.55933 30.0713 3.53195 30.0422 3.50114 30.0165L3.36766 29.9019L3.22391 29.7975C3.11782 29.7239 3.00316 29.676 2.87652 29.652L2.83203 29.8386C2.85257 29.8471 2.87139 29.8574 2.8885 29.8694C2.90219 29.8779 2.91417 29.8882 2.92615 29.8985L2.96551 29.9293L3.04765 30.0063L3.14862 30.1226L3.24616 30.2476C3.26499 30.2732 3.2821 30.3006 3.30092 30.328C3.30948 30.3434 3.31975 30.3588 3.33001 30.3742L3.36082 30.4221C3.37964 30.4495 3.39675 30.4752 3.41387 30.5094L3.49601 30.6497C3.51997 30.6925 3.54564 30.737 3.56959 30.7883C3.76639 31.1682 3.94094 31.5584 4.09496 31.9588C4.36705 32.6605 4.63059 33.4408 4.92493 34.4145L4.98825 34.6113C5.00365 34.6575 5.02076 34.7055 5.03787 34.7517L5.05841 34.8081C5.07381 34.8458 5.0875 34.8834 5.1029 34.9228L5.17649 35.0922C5.28259 35.3301 5.41607 35.5525 5.57351 35.7596C5.74806 35.9906 5.96026 36.184 6.20668 36.3363C6.46851 36.4989 6.75429 36.5981 7.06061 36.6324C7.14617 36.6426 7.23003 36.6478 7.31388 36.6478C7.51752 36.646 7.71603 36.6221 7.91283 36.5759C8.16952 36.5126 8.41595 36.4236 8.65381 36.3089C9.0919 36.0916 9.49748 35.8246 9.87225 35.5098C10.2316 35.2103 10.5687 34.8886 10.8853 34.5429C11.1951 34.204 11.4843 33.8481 11.7564 33.4768C12.0302 33.1054 12.2783 32.7187 12.5042 32.3148C12.5538 32.2224 12.6086 32.1214 12.6685 32.0033C12.7284 31.8835 12.7729 31.7843 12.8157 31.6833C12.9046 31.478 12.9902 31.2743 13.0758 31.0707C13.163 30.867 13.2435 30.6668 13.329 30.4649C13.5823 29.8454 13.8219 29.2602 14.1162 28.6954C14.3045 28.3275 14.5286 27.9835 14.7888 27.6601Z" fill="#00A9EB"/>
<path id="Vector_7" d="M19.8861 39.8449L20.1394 39.7936L20.5535 39.72L20.7623 39.6875C20.865 39.6721 20.9711 39.6584 21.0738 39.6481L21.1764 39.6361C21.3031 39.6259 21.4485 39.6122 21.5957 39.6105H21.7309C21.7514 39.6087 21.772 39.6087 21.7942 39.6105H21.8096C21.8695 39.6122 21.9277 39.619 21.9842 39.6344L22.0526 39.453C21.9123 39.3931 21.7634 39.3521 21.6111 39.3332C21.4588 39.3076 21.3065 39.2939 21.1696 39.2819H21.1234C20.9968 39.2819 20.8701 39.2699 20.752 39.2699H20.5142L20.0778 39.2836L19.816 39.3007C19.6893 39.3093 19.5627 39.3178 19.4292 39.3298C19.2957 39.3435 19.1417 39.3589 18.998 39.3743L18.5702 39.4273C18.4247 39.4445 18.281 39.4684 18.1406 39.489L17.7128 39.5574C17.5297 39.5865 17.3483 39.6207 17.1652 39.6549L16.864 39.7097C16.6484 39.7508 16.4328 39.797 16.2172 39.8432L15.9211 39.9048L15.8321 39.9185C15.7979 39.9253 15.7654 39.9288 15.7311 39.9305H15.5566L15.5121 39.9202C15.4881 39.9185 15.4625 39.9134 15.4385 39.9048H15.4214C15.4026 39.8997 15.3838 39.8911 15.3666 39.8808L15.3307 39.8637L15.2965 39.8415C15.2794 39.8312 15.2623 39.8175 15.2486 39.8038L15.2417 39.7987H15.2349C15.2178 39.7833 15.2006 39.7662 15.1852 39.7491L15.1562 39.7148L15.098 39.6344L15.0826 39.6036C14.973 39.4085 14.9012 39.2032 14.8635 38.9824C14.7745 38.4707 14.754 37.9556 14.8002 37.4388C14.8379 36.8964 14.9097 36.3607 15.0158 35.8285C15.1185 35.2929 15.2486 34.7555 15.4043 34.2319C15.4676 34.006 15.5429 33.763 15.649 33.4481C15.738 33.1863 15.8338 32.9245 15.9314 32.6763C16.1265 32.1681 16.3506 31.6735 16.6022 31.1909C16.8452 30.7135 17.1327 30.2634 17.463 29.8407C17.6187 29.6457 17.7915 29.466 17.9815 29.3017C18.1509 29.1511 18.3409 29.033 18.5513 28.9475L18.5873 28.9338H18.6027L18.6985 28.9047C18.7105 28.9047 18.7208 28.9047 18.731 28.9047H18.7618L18.7995 28.8995C18.8097 28.8978 18.8217 28.8978 18.8337 28.8995H18.9689C18.9843 28.8978 18.998 28.9012 19.0134 28.9047C19.0134 28.9047 19.0202 28.9047 19.0305 28.9167C19.0493 28.9372 19.063 28.9577 19.0733 28.9817C19.1161 29.0775 19.1469 29.1751 19.164 29.2777C19.2102 29.5276 19.2376 29.7808 19.2495 30.0358V30.0649C19.2581 30.1693 19.2632 30.2754 19.2701 30.3815C19.2803 30.5595 19.2906 30.7392 19.306 30.9189C19.3402 31.5075 19.4498 32.0808 19.6363 32.6404C19.7424 32.9296 19.8879 33.1966 20.0761 33.4413C20.2626 33.6826 20.4902 33.8777 20.7555 34.03L20.8667 33.8725C20.6596 33.6946 20.4936 33.4824 20.367 33.2411C20.2421 33.0066 20.1531 32.7585 20.1001 32.4967C20.0453 32.2314 20.0128 31.9644 20.0025 31.6958C19.9922 31.4425 19.9922 31.1738 20.0025 30.8692C20.0025 30.6998 20.0162 30.5304 20.0248 30.3644C20.0248 30.2515 20.035 30.1385 20.0384 30.0256C20.0453 29.8801 20.047 29.7312 20.047 29.5823C20.047 29.4266 20.0402 29.2709 20.023 29.1152C20.0076 28.9338 19.9683 28.7575 19.9033 28.5864C19.8622 28.4786 19.8074 28.381 19.7355 28.2903C19.6517 28.1825 19.5507 28.0969 19.4327 28.0302C19.3163 27.9686 19.1931 27.9275 19.063 27.9104C18.986 27.9019 18.9073 27.8984 18.8303 27.8984H18.7584C18.7276 27.8984 18.6985 27.8984 18.6694 27.8984H18.5873C18.5531 27.9019 18.5171 27.907 18.4829 27.9138L18.3323 27.9464L18.281 27.9583L18.2194 27.9789C17.8891 28.085 17.5845 28.2441 17.3089 28.4546C17.0557 28.6497 16.8229 28.867 16.6125 29.1083C16.2086 29.5704 15.8578 30.0718 15.5634 30.6091C15.2725 31.1276 15.0141 31.6598 14.7917 32.2092C14.5726 32.7499 14.3792 33.3095 14.2132 33.8759C13.8744 35.0157 13.6759 36.1776 13.6177 37.3653C13.5869 37.9864 13.6417 38.6025 13.7786 39.21C13.8556 39.5523 13.9908 39.8706 14.1841 40.1632L14.2269 40.2248L14.292 40.3069C14.3142 40.336 14.3382 40.3634 14.3673 40.3942L14.3963 40.4233C14.4562 40.4866 14.5196 40.5414 14.588 40.5927C14.6599 40.6492 14.7386 40.6988 14.8207 40.7399L14.8601 40.7621L14.9046 40.781C14.9867 40.8169 15.0706 40.8443 15.1579 40.8631C15.2486 40.8888 15.3393 40.9025 15.4334 40.9076H15.6387C15.6764 40.9076 15.714 40.9059 15.7517 40.9008H15.7928C15.8698 40.8922 15.9451 40.8785 16.0186 40.8597L16.1453 40.8289L16.2497 40.7981L17.0608 40.5585L17.8771 40.3309L18.488 40.1666L19.1024 40.016L19.5165 39.9202C19.6414 39.8877 19.7646 39.8637 19.8861 39.8449Z" fill="#00A9EB"/>
<path id="Vector_8" d="M27.4196 36.1642C27.281 35.7261 27.1218 35.2966 26.9387 34.8756C26.7556 34.4529 26.5468 34.0422 26.3124 33.6452C26.2576 33.5528 26.1977 33.4535 26.1259 33.344C26.054 33.2328 25.989 33.1421 25.9222 33.0548C25.7956 32.8751 25.6587 32.6971 25.5269 32.5226C25.3934 32.3463 25.2617 32.1735 25.1299 32.0006C24.7226 31.4684 24.3376 30.9653 23.9987 30.428C23.7711 30.0737 23.5812 29.7007 23.4306 29.3088C23.2817 28.9066 23.1842 28.4925 23.138 28.0664H22.9463C22.9326 28.1776 22.9206 28.2889 22.9104 28.4018C22.9104 28.4771 22.9104 28.5507 22.9018 28.626C22.9018 28.6636 22.9018 28.703 22.9018 28.7389C22.9001 28.7886 22.9001 28.8382 22.9018 28.8878L22.9172 29.1171C22.9172 29.1377 22.9172 29.1582 22.9172 29.1787L22.9566 29.432C23.0387 29.8889 23.1756 30.3304 23.3656 30.7531C23.5538 31.1673 23.766 31.5694 23.9987 31.9596C24.1151 32.1598 24.2332 32.3515 24.3444 32.5311C24.4539 32.7108 24.5754 32.9093 24.6918 33.0907C24.8082 33.2721 24.9228 33.4604 25.0358 33.6452V33.6537C25.094 33.7462 25.1419 33.8232 25.1898 33.907C25.236 33.9909 25.2942 34.0953 25.3335 34.1774C25.5218 34.547 25.6912 34.9269 25.8401 35.3137C26.0078 35.7484 26.1413 36.1385 26.2439 36.5047C26.362 36.9 26.4544 37.3022 26.5212 37.7095C26.5896 38.0962 26.6153 38.4864 26.5965 38.8783C26.5862 39.0563 26.5605 39.2291 26.516 39.4019C26.475 39.5491 26.4134 39.6877 26.3312 39.8161C26.2525 39.9307 26.1549 40.0214 26.0369 40.0933C25.9034 40.1703 25.7596 40.2234 25.6056 40.2507C25.4533 40.2798 25.2976 40.2935 25.1419 40.2918H25.0717L24.9245 40.285L24.8355 40.2764H24.7774C24.7397 40.2764 24.7021 40.2696 24.6644 40.2644L24.4796 40.2388C23.5932 40.1001 22.6999 40.0214 21.8032 40.0026H21.348C21.2761 40.0026 21.1974 40.0026 21.1204 40.0112L20.7832 40.0351C20.7062 40.0402 20.6275 40.0505 20.5505 40.0608L20.4461 40.0745C20.3845 40.0745 20.3195 40.0933 20.2716 40.1036L20.1073 40.1327C20.0662 40.1327 20.0268 40.1515 19.9806 40.16L19.9259 40.1754L19.8728 40.1891C19.8335 40.1977 19.7941 40.208 19.7565 40.2216L19.5905 40.2798L19.4262 40.35C19.3098 40.4048 19.2089 40.4783 19.125 40.5759L19.2636 40.7025C19.2807 40.6888 19.2996 40.6768 19.3201 40.6683C19.3338 40.6614 19.3492 40.6546 19.3646 40.6495L19.4108 40.6306L19.5169 40.6016L19.6692 40.5725L19.8318 40.5553C19.8626 40.5553 19.8968 40.5553 19.9276 40.5485H20.3126C20.3605 40.5485 20.4085 40.5485 20.4615 40.5485C20.891 40.5725 21.3154 40.6187 21.7381 40.6888C22.4825 40.8155 23.2903 40.978 24.2811 41.2159L24.483 41.2604C24.5309 41.2724 24.5806 41.2826 24.6302 41.2895L24.6867 41.2998C24.7277 41.3066 24.7688 41.3152 24.8133 41.3203L24.9964 41.3442C25.123 41.3562 25.2497 41.3631 25.3763 41.3631C25.5115 41.3631 25.6467 41.3545 25.7802 41.3391C26.0677 41.3049 26.3398 41.221 26.5947 41.0858C26.8686 40.9421 27.0979 40.747 27.2844 40.4989C27.4555 40.2661 27.5822 40.0112 27.6643 39.7339C27.7396 39.4807 27.7875 39.224 27.808 38.9604C27.8406 38.4744 27.8166 37.9884 27.7345 37.5076C27.6592 37.0524 27.5548 36.6057 27.4196 36.1642Z" fill="#00A9EB"/>
<path id="Vector_9" d="M36.8367 30.2491C36.8744 30.1533 36.9172 30.0558 36.9634 29.9616L37.0044 29.8675C37.0575 29.7529 37.1208 29.6228 37.1927 29.4945C37.2046 29.4722 37.2183 29.45 37.232 29.4294L37.2628 29.3764C37.2731 29.3593 37.2851 29.3422 37.2971 29.325L37.3073 29.3096C37.3381 29.26 37.3741 29.2155 37.4151 29.1727L37.2885 29.0222C37.1636 29.1146 37.0558 29.2207 36.9599 29.3422C36.8624 29.4602 36.7734 29.5852 36.6947 29.6964L36.6724 29.7306C36.6006 29.8401 36.527 29.9514 36.462 30.066L36.349 30.2543L36.1402 30.6325L36.0239 30.8635C35.9674 30.9781 35.9075 31.0979 35.8544 31.216C35.7997 31.3341 35.7278 31.4778 35.673 31.6096L35.5036 32.0083C35.4437 32.1418 35.3907 32.2787 35.3393 32.4105L35.1819 32.8109C35.1135 32.9838 35.0553 33.1583 34.9868 33.3346C34.9526 33.4287 34.9184 33.5245 34.8841 33.6204C34.8106 33.8309 34.7387 34.0431 34.6685 34.2518L34.5761 34.5291L34.5419 34.6146C34.5299 34.6471 34.5162 34.6779 34.4991 34.707C34.4923 34.7207 34.4854 34.7361 34.4752 34.7549C34.4717 34.7652 34.4649 34.7755 34.458 34.784L34.4461 34.8029C34.4375 34.8131 34.4324 34.8234 34.4255 34.832C34.4204 34.8405 34.4153 34.8491 34.4101 34.8559C34.3999 34.8662 34.3913 34.8782 34.381 34.8884C34.3656 34.909 34.3485 34.9261 34.3297 34.9432H34.3211C34.3074 34.9569 34.292 34.9689 34.2749 34.9774L34.2407 35.0014L34.2031 35.0185C34.1859 35.0288 34.1671 35.0356 34.1466 35.0407H34.1295C34.1089 35.0476 34.085 35.0544 34.0627 35.0578L34.0182 35.0664H33.8865C33.6623 35.0613 33.4467 35.0185 33.2379 34.9398C32.7502 34.7567 32.295 34.5137 31.8706 34.2125C31.4222 33.9062 30.9961 33.5742 30.5888 33.2131C30.1798 32.8537 29.7811 32.4704 29.4063 32.0751C29.242 31.9057 29.0709 31.7174 28.8519 31.4676C28.6705 31.2571 28.4942 31.0449 28.3282 30.8361C27.9877 30.41 27.6728 29.9668 27.3836 29.5064C27.0995 29.0581 26.8599 28.5858 26.6649 28.0929C26.5742 27.8602 26.5057 27.6206 26.4612 27.3742C26.4167 27.1517 26.4116 26.9275 26.4441 26.7034V26.6657C26.4424 26.6606 26.4424 26.6537 26.4441 26.6486L26.4681 26.5511C26.4698 26.5408 26.4749 26.5305 26.4783 26.5203C26.4835 26.5117 26.4869 26.5014 26.4886 26.4929C26.4886 26.4809 26.4972 26.4689 26.5023 26.4569C26.5057 26.445 26.5091 26.4347 26.5143 26.4244L26.5416 26.3714C26.5553 26.3423 26.5656 26.3183 26.5759 26.3029C26.5827 26.2909 26.593 26.279 26.6033 26.2687C26.6084 26.2636 26.6152 26.2619 26.6221 26.2601C26.6392 26.2584 26.6563 26.2584 26.6734 26.2601H26.7059C26.8086 26.2704 26.9096 26.2927 27.0071 26.3286C27.2467 26.4176 27.4794 26.522 27.7053 26.6418L27.7344 26.6554L28.0202 26.7992C28.1776 26.8796 28.3385 26.9618 28.4994 27.0388C29.0333 27.3126 29.5912 27.5094 30.1781 27.6326C30.3647 27.6668 30.5529 27.6839 30.7428 27.6839C30.8592 27.6839 30.9756 27.6771 31.0919 27.6617C31.3966 27.6223 31.6823 27.5265 31.9476 27.3725L31.8689 27.1979C31.6413 27.2749 31.4085 27.3143 31.169 27.3143H31.0748C30.8079 27.3023 30.5478 27.2544 30.2962 27.1688C30.0395 27.0816 29.7931 26.9737 29.5552 26.8454C29.3327 26.7273 29.0983 26.5921 28.8416 26.4278C28.6979 26.3371 28.5524 26.243 28.4069 26.1489L28.1263 25.9675C27.9997 25.8871 27.873 25.8101 27.7464 25.7365C27.6112 25.6561 27.4726 25.5842 27.3305 25.5192C27.1663 25.4421 26.9934 25.3874 26.8137 25.3566C26.6991 25.3395 26.5861 25.3395 26.4715 25.3566C26.3363 25.3737 26.2097 25.4148 26.0916 25.4832C25.9786 25.55 25.8828 25.6338 25.8007 25.7365C25.7545 25.7981 25.7117 25.8614 25.674 25.9299L25.6449 25.9795C25.6278 26.0086 25.6107 26.0394 25.597 26.0719C25.597 26.0839 25.5868 26.0959 25.5782 26.1113L25.5628 26.1455C25.5491 26.178 25.5354 26.2105 25.5234 26.243L25.4755 26.3902C25.4687 26.4056 25.4652 26.4227 25.4601 26.4398L25.4464 26.5014C25.3711 26.842 25.3557 27.1825 25.3985 27.5282C25.4379 27.8448 25.508 28.1545 25.6073 28.4591C25.8024 29.0376 26.0556 29.5886 26.3671 30.1122C26.6683 30.6239 26.9986 31.1168 27.3596 31.5874C27.7173 32.0494 28.104 32.4995 28.5079 32.9273C29.3208 33.7949 30.2243 34.553 31.222 35.2033C31.7439 35.5456 32.3035 35.8108 32.8973 36.0008C33.1814 36.088 33.4723 36.1342 33.7701 36.1377C33.8214 36.1377 33.8745 36.1377 33.9258 36.1377H34.0028L34.1055 36.1223C34.1415 36.1223 34.1774 36.1103 34.2185 36.1017L34.2595 36.0915C34.4341 36.0487 34.5967 35.9802 34.749 35.8861L34.7849 35.8621L34.8243 35.8331C34.8961 35.7834 34.9629 35.7252 35.0228 35.6619C35.0895 35.5952 35.1477 35.525 35.2007 35.4463L35.2161 35.4258C35.2367 35.3967 35.2555 35.3659 35.2726 35.3351L35.3085 35.2683C35.3274 35.2341 35.3445 35.2016 35.3582 35.1657L35.3753 35.128C35.4061 35.0578 35.4318 34.986 35.454 34.9124L35.4899 34.7858L35.5173 34.6814L35.721 33.8599L35.9366 33.0437L36.1043 32.4344L36.284 31.8287L36.4106 31.4248C36.4465 31.2982 36.4876 31.1852 36.5287 31.0688L36.6108 30.8293L36.7563 30.4357L36.8367 30.2491Z" fill="#00A9EB"/>
<g id="Clip path group">
<mask id="mask0_652_608" style="mask-type:luminance" maskUnits="userSpaceOnUse" x="27" y="22" width="15" height="11">
<g id="300a74e497">
<path id="Vector_10" d="M27.7422 22.1094H41.0474V32.1854H27.7422V22.1094Z" fill="white"/>
</g>
</mask>
<g mask="url(#mask0_652_608)">
<g id="Group">
<path id="Vector_11" d="M40.8611 25.0559C40.7465 24.7907 40.5908 24.5511 40.3923 24.3389C40.2126 24.1455 40.0158 23.9744 39.7984 23.8221C39.3946 23.5483 38.9633 23.3241 38.5047 23.1513C38.0683 22.9853 37.6217 22.8501 37.1682 22.744C36.7198 22.6396 36.2663 22.5609 35.8094 22.5061C35.3765 22.453 34.9418 22.4257 34.5054 22.4222H34.4353C34.3292 22.4222 34.2128 22.4222 34.081 22.4308C33.9493 22.4394 33.838 22.4479 33.7285 22.4582C33.5078 22.4821 33.287 22.5061 33.068 22.5301C32.8489 22.5557 32.6316 22.5831 32.416 22.6088C31.7503 22.6909 31.1205 22.7679 30.4839 22.7885C30.4035 22.7885 30.3231 22.7885 30.2426 22.7885C29.9021 22.7902 29.565 22.7628 29.2296 22.7063C28.8069 22.631 28.3996 22.5044 28.0077 22.3281L27.9102 22.4924C27.9991 22.5591 28.0898 22.6276 28.1823 22.6926C28.2439 22.7354 28.3089 22.7731 28.3722 22.8124L28.4697 22.8723C28.5108 22.898 28.5519 22.9219 28.5964 22.9425L28.8069 23.0452C28.824 23.0554 28.8428 23.064 28.8616 23.0725L29.0995 23.1667C29.5376 23.3275 29.9877 23.4319 30.4497 23.4832C30.9015 23.5329 31.355 23.5551 31.8085 23.5517H31.8838C32.0942 23.5517 32.3013 23.5517 32.4759 23.5448C32.6983 23.5448 32.9191 23.5397 33.1364 23.5294C33.3555 23.5226 33.5728 23.5175 33.7901 23.5123H34.0999C34.2145 23.5123 34.3121 23.5192 34.4045 23.5243C34.822 23.5517 35.2362 23.5996 35.6486 23.6681C36.1106 23.7434 36.5128 23.8272 36.8824 23.9196C37.2846 24.0189 37.6782 24.1421 38.0632 24.291C38.4328 24.4279 38.7819 24.6024 39.1122 24.818C39.2594 24.9139 39.3963 25.0251 39.5212 25.1517C39.629 25.2596 39.718 25.3828 39.7865 25.5197C39.8464 25.6429 39.8772 25.7746 39.8772 25.9116C39.8789 26.0673 39.8515 26.2179 39.7984 26.3633C39.7351 26.5327 39.6564 26.6919 39.5589 26.8442L39.4818 26.9708L39.4288 27.0444L39.3946 27.0923C39.374 27.1214 39.3501 27.1505 39.3278 27.1813L39.2115 27.3302C38.6416 28.0216 38.1231 28.7489 37.6525 29.5121C37.6063 29.5857 37.5652 29.661 37.5259 29.7346L37.4848 29.8099L37.43 29.9074C37.3924 29.9707 37.3547 30.034 37.3205 30.1059L37.1716 30.4105C37.1374 30.479 37.1066 30.5508 37.0775 30.6227C37.0621 30.6552 37.0484 30.6895 37.0347 30.7203C37.009 30.7784 36.9885 30.8366 36.9697 30.8845L36.9149 31.042C36.8995 31.0813 36.8875 31.1207 36.8756 31.1618C36.8756 31.1772 36.867 31.1943 36.8619 31.2148L36.8465 31.2679C36.8345 31.3072 36.8225 31.3449 36.8157 31.3842L36.7814 31.5571L36.7609 31.7333C36.7472 31.8634 36.7609 31.99 36.802 32.1132L36.9885 32.0585C36.9851 32.0379 36.9851 32.0157 36.9885 31.9952C36.9868 31.9798 36.9868 31.9626 36.9885 31.9472C36.9885 31.9472 36.9954 31.8993 36.9954 31.8976L37.0227 31.7898L37.0758 31.6443L37.1425 31.4972C37.1545 31.4681 37.1699 31.439 37.1853 31.4116C37.2007 31.3842 37.2041 31.3757 37.2127 31.3603C37.2195 31.3449 37.2298 31.3295 37.2366 31.3124C37.2452 31.297 37.2674 31.2542 37.288 31.2234L37.3718 31.083C37.3958 31.042 37.4232 30.9958 37.4557 30.9581C37.6918 30.6005 37.9485 30.2565 38.2223 29.9279C38.7032 29.3478 39.256 28.7369 39.9644 28.0062L40.1048 27.8556C40.139 27.8179 40.1732 27.782 40.204 27.7426L40.2434 27.6964C40.2708 27.6656 40.2964 27.6348 40.3221 27.6023L40.435 27.4551C40.5908 27.2464 40.7191 27.0222 40.8235 26.7826C40.9433 26.5156 41.0083 26.235 41.0203 25.9406C41.0323 25.6343 40.9792 25.34 40.8611 25.0559Z" fill="#00A9EB"/>
</g>
</g>
</g>
<path id="Vector_12" d="M37.91 12.9211L37.626 12.6062C37.5404 12.5138 37.4582 12.418 37.3727 12.3239L37.2187 12.1253L36.9517 11.8019L36.8251 11.6342C36.7618 11.5538 36.6984 11.4665 36.6385 11.3809L36.5786 11.2971C36.5068 11.1944 36.4246 11.0729 36.351 10.9463C36.3374 10.9257 36.3271 10.9035 36.3134 10.8812C36.3134 10.8812 36.2929 10.8385 36.2843 10.8282C36.2775 10.8162 36.2655 10.7923 36.2569 10.7717L36.2501 10.7563C36.2227 10.7033 36.2022 10.6502 36.1868 10.5938L35.9951 10.6211C36.0105 10.7751 36.0482 10.9223 36.1046 11.0661C36.1577 11.2115 36.221 11.3501 36.2775 11.4733L36.2963 11.5127C36.3528 11.6274 36.4127 11.7472 36.4777 11.8618L36.5838 12.0535L36.808 12.4334L36.95 12.6507C37.0202 12.7585 37.092 12.8698 37.1656 12.9741C37.2409 13.0785 37.3316 13.2103 37.4189 13.3301L37.6722 13.6741C37.7594 13.7938 37.8484 13.9102 37.9357 14.0197L38.2027 14.3586C38.319 14.504 38.4371 14.6461 38.5569 14.7898L38.752 15.0225C38.894 15.192 39.0412 15.358 39.1866 15.5291L39.3817 15.7533L39.4399 15.8251C39.4604 15.8508 39.4793 15.8799 39.4981 15.9073C39.5067 15.9227 39.5152 15.9364 39.5272 15.9552C39.534 15.9638 39.5392 15.974 39.5426 15.9843L39.5529 16.0048L39.5683 16.0373C39.5734 16.0442 39.5785 16.0527 39.5819 16.0613C39.5819 16.075 39.5905 16.0887 39.5956 16.1024C39.6042 16.1263 39.611 16.1503 39.6162 16.1742V16.1931C39.6162 16.2119 39.6162 16.2324 39.6162 16.2513C39.6162 16.2667 39.6162 16.2803 39.6162 16.2923V16.3334C39.6145 16.3539 39.6128 16.3745 39.6076 16.3933V16.4104C39.6025 16.4344 39.5956 16.4566 39.5871 16.4789C39.5871 16.4925 39.5768 16.5062 39.5734 16.5199L39.5323 16.6089L39.5135 16.638C39.3954 16.828 39.25 16.9922 39.0754 17.1326C38.6715 17.4594 38.2317 17.7298 37.756 17.942C37.2649 18.173 36.7618 18.3732 36.2449 18.5392C35.7264 18.7121 35.1942 18.8592 34.6603 18.9807C34.4293 19.0372 34.1794 19.0903 33.8543 19.1519C33.5805 19.2032 33.3084 19.246 33.0414 19.2785C32.5024 19.3572 31.9599 19.4034 31.414 19.4188C31.3182 19.4188 31.2223 19.4188 31.1248 19.4188C30.6901 19.4205 30.2589 19.388 29.8311 19.3179C29.5829 19.2802 29.3416 19.2169 29.1055 19.1313C28.8916 19.056 28.6948 18.9482 28.5168 18.8062L28.4877 18.7822L28.4757 18.772L28.4039 18.7001C28.3953 18.6933 28.3884 18.6847 28.3833 18.6744C28.3765 18.6676 28.3696 18.659 28.3628 18.6522C28.3559 18.6419 28.3474 18.6334 28.3388 18.6231C28.332 18.6145 28.3251 18.606 28.3183 18.5974L28.2841 18.5444C28.2687 18.5204 28.2515 18.4965 28.243 18.4828C28.2361 18.4708 28.231 18.4554 28.2293 18.4417C28.2259 18.4348 28.2259 18.4263 28.2293 18.4194C28.2361 18.3955 28.2481 18.3715 28.2635 18.351C28.3251 18.2671 28.397 18.1918 28.4774 18.1268C28.6759 17.966 28.883 17.8171 29.1003 17.6819L29.126 17.6648L29.393 17.4936C29.5436 17.3978 29.6959 17.302 29.8465 17.1993C30.3513 16.8793 30.8065 16.4977 31.2086 16.0545C31.4106 15.8217 31.5731 15.565 31.6946 15.2827C31.8144 15.0003 31.876 14.7043 31.8795 14.3979L31.6878 14.3774C31.6313 14.6426 31.5304 14.8908 31.3849 15.1201C31.2394 15.3426 31.0649 15.5411 30.8647 15.7139C30.6593 15.8902 30.4403 16.0493 30.2093 16.1896C29.9953 16.3231 29.7592 16.4549 29.4871 16.5918C29.3382 16.6705 29.1859 16.7458 29.0319 16.8228L28.729 16.9751C28.6024 17.0419 28.4655 17.112 28.3371 17.1839C28.178 17.2746 28.0547 17.3516 27.9401 17.4372C27.7895 17.5398 27.6543 17.6596 27.5379 17.8C27.4644 17.8872 27.4045 17.9848 27.36 18.0909C27.3069 18.2158 27.2812 18.3459 27.2812 18.4811C27.283 18.6128 27.3086 18.7395 27.3565 18.861C27.3873 18.9328 27.4216 19.0013 27.4592 19.068L27.4883 19.1194C27.5037 19.1502 27.5225 19.1793 27.5431 19.2066L27.5705 19.2426L27.591 19.2734C27.6098 19.3025 27.6321 19.3298 27.6543 19.3572L27.757 19.4736C27.769 19.4873 27.7809 19.4993 27.7929 19.5112L27.8391 19.5557C28.0941 19.7919 28.3816 19.9784 28.7016 20.1153C28.996 20.242 29.2989 20.3378 29.612 20.4045C30.2093 20.5312 30.8133 20.5928 31.4243 20.5911H31.5115C32.0763 20.5859 32.6393 20.55 33.2006 20.4798C33.7773 20.4062 34.3625 20.3019 34.9375 20.1701C36.0978 19.91 37.2101 19.5164 38.2745 18.9893C38.8341 18.7121 39.3458 18.3647 39.8095 17.9488C40.0697 17.7144 40.2819 17.4406 40.4427 17.1291L40.4769 17.0624L40.5163 16.9631C40.53 16.9289 40.5437 16.8964 40.5557 16.857L40.5676 16.8177C40.5933 16.7338 40.6104 16.65 40.6224 16.5644C40.6361 16.472 40.6412 16.3813 40.6378 16.2889V16.1982C40.619 16.0151 40.5711 15.8423 40.4924 15.6763L40.4821 15.6523C40.4667 15.6181 40.4479 15.5873 40.4325 15.5582C40.4153 15.5291 40.3931 15.4914 40.3931 15.4914C40.3743 15.4589 40.3537 15.4281 40.3315 15.399L40.3041 15.3648C40.2596 15.3015 40.2117 15.2433 40.1587 15.1885L40.068 15.0927L39.9927 15.0174L39.3869 14.427L38.7896 13.8281L37.91 12.9211Z" fill="#00A9EB"/>
<g id="Vector_13">
<path d="M25.5 15.2345L25.5941 15.4022C25.6968 15.3594 25.7995 15.3166 25.9039 15.2687C25.9723 15.2379 26.0391 15.202 26.1041 15.166L26.205 15.113C26.2411 15.095 26.2749 15.0736 26.3083 15.0524C26.3161 15.0475 26.3239 15.0426 26.3317 15.0377L26.5251 14.911L26.5764 14.8751L26.78 14.7177C27.1394 14.4233 27.4577 14.0879 27.7349 13.7149C28.0053 13.3504 28.2552 12.9705 28.4811 12.5786C28.5857 12.4132 28.6786 12.2443 28.7618 12.0931C28.7793 12.0613 28.7964 12.0302 28.813 12.0002C28.8324 11.9655 28.8517 11.9309 28.8709 11.8964C28.9594 11.7381 29.0474 11.5805 29.1331 11.4217C29.2032 11.2951 29.2725 11.1707 29.3431 11.0441C29.3794 10.9791 29.4159 10.9135 29.4531 10.8468C29.5061 10.7509 29.5523 10.6688 29.6037 10.5849C29.655 10.4994 29.7166 10.4035 29.7679 10.3317C30.0007 9.98769 30.2539 9.65057 30.5209 9.33227C30.8187 8.9729 31.0959 8.66829 31.3646 8.39791C31.6538 8.10357 31.9601 7.82634 32.2835 7.57136C32.5864 7.32151 32.915 7.11102 33.2675 6.93818C33.4267 6.85947 33.5927 6.79786 33.7638 6.75337C33.8819 6.72427 34.0017 6.70887 34.1232 6.70887H34.2156C34.3542 6.71914 34.4825 6.7585 34.6023 6.82866C34.7358 6.90738 34.8522 7.00664 34.9497 7.12643C35.0644 7.26504 35.1619 7.41392 35.2458 7.57307L35.3125 7.69971C35.3185 7.71254 35.3245 7.72623 35.3305 7.73992C35.3365 7.75361 35.3424 7.7673 35.3484 7.78014L35.3724 7.8349C35.3859 7.86055 35.3962 7.88834 35.4067 7.91658C35.4095 7.92413 35.4123 7.93171 35.4152 7.93928L35.4853 8.11212C35.7951 8.95407 36.1613 9.77036 36.584 10.561C36.6233 10.638 36.6678 10.7133 36.7106 10.7851L36.7517 10.8587C36.7665 10.8809 36.7795 10.9039 36.7926 10.9272C36.7977 10.9363 36.8029 10.9454 36.8082 10.9546C36.8458 11.0179 36.8852 11.0812 36.9279 11.1497L37.1128 11.432C37.1419 11.4752 37.1735 11.5176 37.2053 11.5603C37.2201 11.5802 37.235 11.6001 37.2497 11.6203L37.313 11.7075C37.3489 11.7572 37.3883 11.8051 37.4225 11.8461L37.5303 11.9728C37.5543 12.0036 37.5834 12.0344 37.6124 12.0652L37.6125 12.0652L37.6518 12.1045C37.6655 12.1182 37.6775 12.1319 37.6895 12.1456C37.7168 12.1747 37.7459 12.2021 37.775 12.2295L37.775 12.2295L37.9085 12.3458L38.0505 12.4536C38.1532 12.5289 38.2679 12.5803 38.3928 12.606L38.4407 12.4194C38.4202 12.4126 38.4014 12.4023 38.3842 12.3886L38.3483 12.3595L38.3089 12.3287L38.2285 12.2483L38.1293 12.1319L38.0369 12.0053C38.0191 11.9817 38.0052 11.9593 37.9908 11.936C37.9885 11.9323 37.9862 11.9286 37.9838 11.9249C37.9707 11.9001 37.965 11.8927 37.9573 11.8826C37.956 11.8808 37.9545 11.879 37.953 11.8769C37.9444 11.8615 37.9342 11.8444 37.9239 11.8273C37.9051 11.7999 37.888 11.7708 37.8726 11.74L37.7956 11.598C37.7716 11.5569 37.7459 11.509 37.722 11.4594C37.532 11.0744 37.3626 10.6808 37.2154 10.2786C36.9622 9.57014 36.7089 8.78466 36.4351 7.8058L36.3752 7.60901C36.3615 7.56109 36.3461 7.51318 36.329 7.46526L36.3085 7.40708C36.3039 7.39453 36.2995 7.38198 36.2952 7.36943C36.2864 7.34433 36.2777 7.31923 36.2674 7.29413L36.2041 7.11616C36.1031 6.87658 35.9765 6.6524 35.8242 6.44191C35.6547 6.20747 35.4494 6.01067 35.2064 5.85323C34.9463 5.68553 34.6639 5.58114 34.3576 5.53836C34.2566 5.52638 34.1557 5.51953 34.053 5.51953C33.8665 5.51953 33.6816 5.54007 33.5002 5.57943C33.2418 5.63761 32.9937 5.72317 32.7541 5.8327C32.3126 6.04318 31.9002 6.29988 31.5203 6.6062C31.1558 6.89882 30.8135 7.2137 30.4918 7.55082C30.1769 7.88623 29.8826 8.23534 29.6054 8.60155C29.323 8.96777 29.0663 9.34938 28.8336 9.74811C28.7805 9.83881 28.7241 9.93977 28.6625 10.0579C28.6008 10.1742 28.5529 10.2735 28.5084 10.3744C28.416 10.5747 28.3253 10.7766 28.2363 10.9802C28.1474 11.1805 28.0601 11.3807 27.9745 11.5809C27.9658 11.601 27.957 11.6212 27.9483 11.6412C27.6911 12.2333 27.4477 12.7937 27.1514 13.3332C26.9546 13.7046 26.7201 14.052 26.4498 14.3737C26.1691 14.7006 25.8525 14.9863 25.5 15.2345Z" fill="#00A9EB"/>
<path d="M25.5 15.2345L25.5941 15.4022C25.6968 15.3594 25.7995 15.3166 25.9039 15.2687C25.9723 15.2379 26.0391 15.202 26.1041 15.166L26.205 15.113C26.2411 15.095 26.2749 15.0736 26.3083 15.0524C26.3161 15.0475 26.3239 15.0426 26.3317 15.0377L26.5251 14.911L26.5764 14.8751L26.78 14.7177C27.1394 14.4233 27.4577 14.0879 27.7349 13.7149C28.0053 13.3504 28.2552 12.9705 28.4811 12.5786C28.5857 12.4132 28.6786 12.2443 28.7618 12.0931C28.7793 12.0613 28.7964 12.0302 28.813 12.0002C28.8324 11.9655 28.8517 11.9309 28.8709 11.8964C28.9594 11.7381 29.0474 11.5805 29.1331 11.4217C29.2032 11.2951 29.2725 11.1707 29.3431 11.0441C29.3794 10.9791 29.4159 10.9135 29.4531 10.8468C29.5061 10.7509 29.5523 10.6688 29.6037 10.5849C29.655 10.4994 29.7166 10.4035 29.7679 10.3317C30.0007 9.98769 30.2539 9.65057 30.5209 9.33227C30.8187 8.9729 31.0959 8.66829 31.3646 8.39791C31.6538 8.10357 31.9601 7.82634 32.2835 7.57136C32.5864 7.32151 32.915 7.11102 33.2675 6.93818C33.4267 6.85947 33.5927 6.79786 33.7638 6.75337C33.8819 6.72427 34.0017 6.70887 34.1232 6.70887H34.2156C34.3542 6.71914 34.4825 6.7585 34.6023 6.82866C34.7358 6.90738 34.8522 7.00664 34.9497 7.12643C35.0644 7.26504 35.1619 7.41392 35.2458 7.57307L35.3125 7.69971C35.3185 7.71254 35.3245 7.72623 35.3305 7.73992C35.3365 7.75361 35.3424 7.7673 35.3484 7.78014L35.3724 7.8349C35.3859 7.86055 35.3962 7.88834 35.4067 7.91658C35.4095 7.92413 35.4123 7.93171 35.4152 7.93928L35.4853 8.11212C35.7951 8.95407 36.1613 9.77036 36.584 10.561C36.6233 10.638 36.6678 10.7133 36.7106 10.7851L36.7517 10.8587C36.7665 10.8809 36.7795 10.9039 36.7926 10.9272C36.7977 10.9363 36.8029 10.9454 36.8082 10.9546C36.8458 11.0179 36.8852 11.0812 36.9279 11.1497L37.1128 11.432C37.1419 11.4752 37.1735 11.5176 37.2053 11.5603C37.2201 11.5802 37.235 11.6001 37.2497 11.6203L37.313 11.7075C37.3489 11.7572 37.3883 11.8051 37.4225 11.8461L37.5303 11.9728C37.5543 12.0036 37.5834 12.0344 37.6124 12.0652L37.6125 12.0652L37.6518 12.1045C37.6655 12.1182 37.6775 12.1319 37.6895 12.1456C37.7168 12.1747 37.7459 12.2021 37.775 12.2295L37.775 12.2295L37.9085 12.3458L38.0505 12.4536C38.1532 12.5289 38.2679 12.5803 38.3928 12.606L38.4407 12.4194C38.4202 12.4126 38.4014 12.4023 38.3842 12.3886L38.3483 12.3595L38.3089 12.3287L38.2285 12.2483L38.1293 12.1319L38.0369 12.0053C38.0191 11.9817 38.0052 11.9593 37.9908 11.936C37.9885 11.9323 37.9862 11.9286 37.9838 11.9249C37.9707 11.9001 37.965 11.8927 37.9573 11.8826C37.956 11.8808 37.9545 11.879 37.953 11.8769C37.9444 11.8615 37.9342 11.8444 37.9239 11.8273C37.9051 11.7999 37.888 11.7708 37.8726 11.74L37.7956 11.598C37.7716 11.5569 37.7459 11.509 37.722 11.4594C37.532 11.0744 37.3626 10.6808 37.2154 10.2786C36.9622 9.57014 36.7089 8.78466 36.4351 7.8058L36.3752 7.60901C36.3615 7.56109 36.3461 7.51318 36.329 7.46526L36.3085 7.40708C36.3039 7.39453 36.2995 7.38198 36.2952 7.36943C36.2864 7.34433 36.2777 7.31923 36.2674 7.29413L36.2041 7.11616C36.1031 6.87658 35.9765 6.6524 35.8242 6.44191C35.6547 6.20747 35.4494 6.01067 35.2064 5.85323C34.9463 5.68553 34.6639 5.58114 34.3576 5.53836C34.2566 5.52638 34.1557 5.51953 34.053 5.51953C33.8665 5.51953 33.6816 5.54007 33.5002 5.57943C33.2418 5.63761 32.9937 5.72317 32.7541 5.8327C32.3126 6.04318 31.9002 6.29988 31.5203 6.6062C31.1558 6.89882 30.8135 7.2137 30.4918 7.55082C30.1769 7.88623 29.8826 8.23534 29.6054 8.60155C29.323 8.96777 29.0663 9.34938 28.8336 9.74811C28.7805 9.83881 28.7241 9.93977 28.6625 10.0579C28.6008 10.1742 28.5529 10.2735 28.5084 10.3744C28.416 10.5747 28.3253 10.7766 28.2363 10.9802C28.1474 11.1805 28.0601 11.3807 27.9745 11.5809C27.9658 11.601 27.957 11.6212 27.9483 11.6412C27.6911 12.2333 27.4477 12.7937 27.1514 13.3332C26.9546 13.7046 26.7201 14.052 26.4498 14.3737C26.1691 14.7006 25.8525 14.9863 25.5 15.2345Z" stroke="black"/>
</g>
<path id="Vector_14" d="M45.6484 40.5703V1.45381" stroke="black" stroke-width="2" stroke-linecap="round"/>
<g id="Group_2">
<g id="Group_3">
<g id="Group_4">
<path id="Vector_15" d="M56.3552 15.3736L54.9519 13.0531C54.8783 13.0582 54.762 13.0599 54.6028 13.0599H52.782V15.3736H51.4883V7.70703H54.6028C55.5782 7.70703 56.3363 7.93634 56.8754 8.39154C57.4179 8.84846 57.69 9.4919 57.69 10.3219C57.69 10.9379 57.5531 11.4582 57.2793 11.8826C57.0055 12.3035 56.6119 12.6133 56.1019 12.8135L57.82 15.3736H56.3552ZM52.782 11.9031H54.6028C55.8435 11.9031 56.4647 11.388 56.4647 10.3561C56.4647 9.36697 55.8435 8.8707 54.6028 8.8707H52.782V11.9031Z" fill="black"/>
</g>
</g>
</g>
<g id="Group_5">
<g id="Group_6">
<g id="Group_7">
<path id="Vector_16" d="M63.4391 12.8203V15.3736H62.1591V12.8683L59.3047 7.70703H60.6053L62.7957 11.4445L64.9451 7.70703H66.2593L63.4391 12.8203Z" fill="black"/>
</g>
</g>
</g>
<g id="Group_8">
<g id="Group_9">
<g id="Group_10">
<path id="Vector_17" d="M69.4695 14.2031H72.7894V15.3736H68.1758V7.70703H69.4695V14.2031Z" fill="black"/>
</g>
</g>
</g>
<g id="Group_11">
<g id="Group_12">
<g id="Group_13">
<path id="Vector_18" d="M51.0625 19.4883H53.1982C53.9785 19.4883 54.622 19.7347 55.1285 20.2276C55.6385 20.7204 55.8952 21.3467 55.8952 22.1031C55.8952 22.8561 55.6385 23.479 55.1285 23.9718C54.6168 24.4613 53.9665 24.7043 53.1776 24.7043H51.0625V19.4883ZM51.9387 20.2823V23.9171H53.2256C53.7355 23.9171 54.1599 23.7494 54.4988 23.4105C54.841 23.0683 55.0121 22.6353 55.0121 22.11C55.0121 21.5812 54.8359 21.1448 54.4851 20.8025C54.1325 20.4569 53.6996 20.2823 53.1845 20.2823H51.9387Z" fill="black"/>
</g>
</g>
</g>
<g id="Group_14">
<g id="Group_15">
<g id="Group_16">
<path id="Vector_19" d="M60.5558 20.2823H57.7082V21.6856H60.2614V22.4796H57.7082V23.9171H60.6448V24.7043H56.832V19.4883H60.5558V20.2823Z" fill="black"/>
</g>
</g>
</g>
<g id="Group_17">
<g id="Group_18">
<g id="Group_19">
<path id="Vector_20" d="M66.2356 24.7043H65.3662L62.5871 20.9668V24.7043H61.7109V19.4883H62.5734L65.3662 23.2394V19.4883H66.2356V24.7043Z" fill="black"/>
</g>
</g>
</g>
<g id="Group_20">
<g id="Group_21">
<g id="Group_22">
<path id="Vector_21" d="M71.1677 20.2823H69.518V24.7043H68.635V20.2823H66.9922V19.4883H71.1677V20.2823Z" fill="black"/>
</g>
</g>
</g>
<g id="Group_23">
<g id="Group_24">
<g id="Group_25">
<path id="Vector_22" d="M75.2838 23.5269H72.6552L72.1555 24.7043H71.2383L73.5382 19.4883H74.4418L76.7212 24.7043H75.7834L75.2838 23.5269ZM74.9483 22.7466L73.9626 20.4261L72.9838 22.7466H74.9483Z" fill="black"/>
</g>
</g>
</g>
<g id="Group_26">
<g id="Group_27">
<g id="Group_28">
<path id="Vector_23" d="M78.2941 23.9102H80.553V24.7043H77.418V19.4883H78.2941V23.9102Z" fill="black"/>
</g>
</g>
</g>
<g id="Group_29">
<g id="Group_30">
<g id="Group_31">
<path id="Vector_24" d="M51.125 28.9258H53.2607C54.041 28.9258 54.6845 29.1722 55.191 29.6651C55.701 30.1579 55.9577 30.7842 55.9577 31.5406C55.9577 32.2936 55.701 32.9165 55.191 33.4093C54.6793 33.8988 54.029 34.1418 53.2401 34.1418H51.125V28.9258ZM52.0012 29.7198V33.3546H53.2881C53.798 33.3546 54.2224 33.1869 54.5613 32.848C54.9035 32.5058 55.0746 32.0728 55.0746 31.5475C55.0746 31.0187 54.8984 30.5823 54.5476 30.24C54.195 29.8944 53.7621 29.7198 53.247 29.7198H52.0012Z" fill="black"/>
</g>
</g>
</g>
<g id="Group_32">
<g id="Group_33">
<g id="Group_34">
<path id="Vector_25" d="M60.6183 29.7198H57.7707V31.1231H60.3239V31.9171H57.7707V33.3546H60.7073V34.1418H56.8945V28.9258H60.6183V29.7198Z" fill="black"/>
</g>
</g>
</g>
<g id="Group_35">
<g id="Group_36">
<g id="Group_37">
<path id="Vector_26" d="M63.4893 28.8945C64.1635 28.8945 64.7728 29.0725 65.3169 29.4285L64.9541 30.202C64.4202 29.8837 63.9103 29.7228 63.4277 29.7228C63.1624 29.7228 62.9554 29.7707 62.8048 29.8665C62.6542 29.9589 62.5789 30.0907 62.5789 30.2636C62.5789 30.4381 62.6473 30.5853 62.7842 30.7085C62.9211 30.8317 63.094 30.9241 63.3045 30.9823C63.5132 31.0371 63.7391 31.1089 63.9821 31.1945C64.2234 31.2818 64.4493 31.3725 64.6598 31.4683C64.8686 31.5641 65.0431 31.7147 65.18 31.9201C65.3169 32.1254 65.3854 32.377 65.3854 32.673C65.3854 33.13 65.2023 33.4945 64.8378 33.7683C64.4716 34.0386 63.9975 34.1721 63.414 34.1721C63.017 34.1721 62.6302 34.1003 62.2572 33.9531C61.8875 33.8025 61.5624 33.6023 61.2852 33.3507L61.6685 32.5909C61.9286 32.8339 62.2161 33.0204 62.531 33.1522C62.8493 33.2857 63.1505 33.3507 63.4345 33.3507C63.7391 33.3507 63.977 33.2959 64.1464 33.1864C64.3193 33.0735 64.4065 32.916 64.4065 32.7141C64.4065 32.5361 64.3347 32.389 64.1943 32.2692C64.0574 32.146 63.8829 32.057 63.6741 32.0022C63.4688 31.944 63.2429 31.8722 62.9964 31.79C62.7534 31.7079 62.5275 31.6223 62.3188 31.5299C62.1134 31.4341 61.9389 31.2869 61.7985 31.085C61.6616 30.8796 61.5932 30.6332 61.5932 30.3457C61.5932 29.9042 61.766 29.5517 62.1134 29.2915C62.4591 29.028 62.9177 28.8945 63.4893 28.8945Z" fill="black"/>
</g>
</g>
</g>
<g id="Group_38">
<g id="Group_39">
<g id="Group_40">
<path id="Vector_27" d="M67.2824 34.1418H66.4062V28.9258H67.2824V34.1418Z" fill="black"/>
</g>
</g>
</g>
<g id="Group_41">
<g id="Group_42">
<g id="Group_43">
<path id="Vector_28" d="M72.2202 31.5827H72.9869V33.4993C72.7216 33.7047 72.4067 33.869 72.0422 33.9922C71.676 34.1154 71.3167 34.177 70.9607 34.177C70.1941 34.177 69.5455 33.9237 69.0167 33.4172C68.4862 32.9072 68.2227 32.2792 68.2227 31.5348C68.2227 30.7921 68.4896 30.1692 69.0235 29.6661C69.5609 29.1595 70.2249 28.9062 71.0155 28.9062C71.3851 28.9062 71.7445 28.973 72.097 29.1048C72.4529 29.2382 72.761 29.4162 73.0211 29.6387L72.5214 30.2821C72.0919 29.8851 71.5905 29.6866 71.0155 29.6866C70.485 29.6866 70.0366 29.868 69.667 30.2274C69.3008 30.5833 69.1194 31.0197 69.1194 31.5348C69.1194 32.055 69.3042 32.4965 69.6738 32.8559C70.0435 33.2118 70.4918 33.3898 71.0223 33.3898C71.4228 33.3898 71.8232 33.2717 72.2202 33.0339V31.5827Z" fill="black"/>
</g>
</g>
</g>
<g id="Group_44">
<g id="Group_45">
<g id="Group_46">
<path id="Vector_29" d="M78.759 34.1418H77.8897L75.1106 30.4043V34.1418H74.2344V28.9258H75.0969L77.8897 32.6769V28.9258H78.759V34.1418Z" fill="black"/>
</g>
</g>
</g>
<g id="Group_47">
<g id="Group_48">
<g id="Group_49">
<path id="Vector_30" d="M83.8566 29.7198H81.009V31.1231H83.5622V31.9171H81.009V33.3546H83.9455V34.1418H80.1328V28.9258H83.8566V29.7198Z" fill="black"/>
</g>
</g>
</g>
<g id="Group_50">
<g id="Group_51">
<g id="Group_52">
<path id="Vector_31" d="M88.314 34.1418L87.3625 32.5605C87.3112 32.5657 87.2325 32.5674 87.123 32.5674H85.884V34.1418H85.0078V28.9258H87.123C87.7886 28.9258 88.3037 29.0815 88.67 29.3913C89.0396 29.7027 89.2244 30.1408 89.2244 30.7055C89.2244 31.1265 89.1303 31.479 88.9438 31.7665C88.7555 32.054 88.4886 32.2645 88.1429 32.3963L89.3134 34.1418H88.314ZM85.884 31.7802H87.123C87.9666 31.7802 88.3893 31.4311 88.3893 30.7329C88.3893 30.0587 87.9666 29.7198 87.123 29.7198H85.884V31.7802Z" fill="black"/>
</g>
</g>
</g>
<g id="Group_53">
<g id="Group_54">
<g id="Group_55">
<path id="Vector_32" d="M92.1065 28.8945C92.7807 28.8945 93.3899 29.0725 93.9341 29.4285L93.5713 30.202C93.0374 29.8837 92.5275 29.7228 92.0449 29.7228C91.7796 29.7228 91.5726 29.7707 91.422 29.8665C91.2714 29.9589 91.1961 30.0907 91.1961 30.2636C91.1961 30.4381 91.2645 30.5853 91.4014 30.7085C91.5383 30.8317 91.7112 30.9241 91.9217 30.9823C92.1304 31.0371 92.3563 31.1089 92.5993 31.1945C92.8406 31.2818 93.0665 31.3725 93.277 31.4683C93.4858 31.5641 93.6603 31.7147 93.7972 31.9201C93.9341 32.1254 94.0026 32.377 94.0026 32.673C94.0026 33.13 93.8195 33.4945 93.455 33.7683C93.0888 34.0386 92.6147 34.1721 92.0312 34.1721C91.6342 34.1721 91.2474 34.1003 90.8744 33.9531C90.5047 33.8025 90.1796 33.6023 89.9023 33.3507L90.2857 32.5909C90.5458 32.8339 90.8333 33.0204 91.1482 33.1522C91.4665 33.2857 91.7676 33.3507 92.0517 33.3507C92.3563 33.3507 92.5942 33.2959 92.7636 33.1864C92.9364 33.0735 93.0237 32.916 93.0237 32.7141C93.0237 32.5361 92.9518 32.389 92.8115 32.2692C92.6746 32.146 92.5001 32.057 92.2913 32.0022C92.0859 31.944 91.8601 31.8722 91.6136 31.79C91.3706 31.7079 91.1447 31.6223 90.936 31.5299C90.7306 31.4341 90.5561 31.2869 90.4157 31.085C90.2788 30.8796 90.2104 30.6332 90.2104 30.3457C90.2104 29.9042 90.3832 29.5517 90.7306 29.2915C91.0763 29.028 91.5349 28.8945 92.1065 28.8945Z" fill="black"/>
</g>
</g>
</g>
</g>
</svg>
